PathFileType	4	(X/Y/Z)	C:\Users\Basilio\Documents\Thesis Gigler\squatting_fais\c3dfiles\039\SJ_pre4\markers_experimental.trc
DataRate	CameraRate	NumFrames	NumMarkers	Units	OrigDataRate	OrigDataStartFrame	OrigNumFrames
200.000000	200.000000	4	63	mm	200.000000	894	1788
Frame#	Time	FHD			LBHD			RBHD			C7			T10			CLAV			LSHO			LUUPA			LMUPA			LDUPA			LLEP			LMEP			LRAD			LUL			LRFIN			RSHO			RUPA1			RMUPA			RDUPA			RLEP			RMEP			RRAD			RUL			RUFIN			LASI			RASI			USACR			LSACR			RSACR			LTHI1			LTHI2			LTHI3			LTHI4			LLFC			LMFC			LTIB1			LTIB2			LTIB3			LTIB4			LLMAL			LMMAL			LHEE			LMT1			LMT2			LMT5			RTHI			RTHI2			RTHI3			RTHI4			RLFC			RMFC			RTIB1			RTIB2			RTIB3			RTIB4			RLMAL			RMMAL			RHEE			RMT1			RMT2			RMT5			*61			*62			
		X1	Y1	Z1	X2	Y2	Z2	X3	Y3	Z3	X4	Y4	Z4	X5	Y5	Z5	X6	Y6	Z6	X7	Y7	Z7	X8	Y8	Z8	X9	Y9	Z9	X10	Y10	Z10	X11	Y11	Z11	X12	Y12	Z12	X13	Y13	Z13	X14	Y14	Z14	X15	Y15	Z15	X16	Y16	Z16	X17	Y17	Z17	X18	Y18	Z18	X19	Y19	Z19	X20	Y20	Z20	X21	Y21	Z21	X22	Y22	Z22	X23	Y23	Z23	X24	Y24	Z24	X25	Y25	Z25	X26	Y26	Z26	X27	Y27	Z27	X28	Y28	Z28	X29	Y29	Z29	X30	Y30	Z30	X31	Y31	Z31	X32	Y32	Z32	X33	Y33	Z33	X34	Y34	Z34	X35	Y35	Z35	X36	Y36	Z36	X37	Y37	Z37	X38	Y38	Z38	X39	Y39	Z39	X40	Y40	Z40	X41	Y41	Z41	X42	Y42	Z42	X43	Y43	Z43	X44	Y44	Z44	X45	Y45	Z45	X46	Y46	Z46	X47	Y47	Z47	X48	Y48	Z48	X49	Y49	Z49	X50	Y50	Z50	X51	Y51	Z51	X52	Y52	Z52	X53	Y53	Z53	X54	Y54	Z54	X55	Y55	Z55	X56	Y56	Z56	X57	Y57	Z57	X58	Y58	Z58	X59	Y59	Z59	X60	Y60	Z60	X61	Y61	Z61	X62	Y62	Z62	X63	Y63	Z63	

895	4.47	159.5981597900391	1073.120483398438	-819.0127563476565	6.803497314453127	1073.003662109375	-948.0501098632815	26.1955680847168	1073.460327148438	-807.0925903320315	-56.31759643554689	1013.097778320313	-887.4729614257815	-340.6042785644532	907.888854980469	-886.319030761719	-33.3794174194336	852.592224121094	-889.1921997070315	3.370118379592896	907.4822998046877	-1070.381225585938	-120.2133178710938	887.4655761718752	-1260.529907226563	-135.7113952636719	840.965270996094	-1257.09130859375	-164.7667236328125	857.582458496094	-1305.646362304688	-223.0715637207032	823.3631591796877	-1335.452392578125	-269.3771362304688	900.0858154296877	-1321.720947265625	-460.3831481933595	789.9682617187502	-1160.5341796875	-445.0895996093751	720.0045166015626	-1186.747436523438	-433.0314331054689	781.0733642578127	-1097.97998046875	-4.465190887451173	893.8111572265627	-703.7036743164064	-140.0398406982422	945.3009033203127	-543.6410522460939	-161.1677703857422	901.5862426757815	-530.4937133789064	-190.1580352783203	940.119323730469	-494.156463623047	-249.0668029785157	912.381774902344	-461.9300231933595	-288.8577575683594	986.174499511719	-497.3618469238282	-451.1577758789064	839.671081542969	-677.6687011718751	-466.7190246582032	788.4913330078127	-623.3611450195314	-419.6153564453126	792.3020019531252	-724.9639892578126	-400.807586669922	738.7429199218751	-1031.758422851563	-389.6134033203126	701.3821411132814	-809.9072265625002	-496.957977294922	867.7205810546877	-881.7437133789065	-526.0494995117189	856.7537841796877	-911.5999145507815	-525.4974365234376	845.8431396484377	-853.3031005859377	-354.2333984375001	597.8242797851564	-1105.936279296875	-269.4311523437501	582.4050292968751	-1113.093872070313	-239.623519897461	618.1351318359376	-1102.307861328125	-241.4914245605469	527.9851074218751	-1104.306640625	-154.8446502685547	474.0739746093751	-1091.703491210938	-119.7013244628907	455.7458496093751	-986.9941406250002	-120.477767944336	335.0915832519532	-1078.377807617188	-198.4813232421876	321.0120849609376	-1118.045166015625	-163.5371551513672	304.3460693359376	-1099.590209960938	-190.6678314208985	228.6697692871094	-1061.611206054688	-316.3970031738282	98.80236816406253	-1092.169555664063	-291.4552612304688	87.4518280029297	-1007.563720703125	-389.7847290039064	42.69490814208985	-1050.498657226563	-155.4659576416016	52.60759353637697	-1071.216430664063	-168.1719055175782	55.32100296020509	-1112.338500976563	-219.4879150390626	33.61715316772462	-1157.706665039063	-360.8165283203126	610.6800537109376	-687.5301513671876	-294.3056640625001	616.3197021484376	-678.3447875976564	-277.1895141601563	643.1826171875001	-690.4455566406251	-242.3900299072266	551.7843017578126	-664.6961669921876	-166.7522888183594	460.9697570800782	-675.9275512695314	-127.508056640625	459.6670227050782	-780.7303466796877	-176.992660522461	269.1392517089844	-690.5721435546876	-277.4172973632813	231.3443908691407	-684.4346923828126	-235.1324462890626	210.3812255859376	-685.1633911132814	-231.3168945312501	157.7125091552735	-713.0184936523439	-323.5525817871094	91.23390197753908	-694.8071289062501	-286.1333312988282	94.17539978027345	-778.0882568359377	-391.8265075683595	41.85785293579102	-747.1000366210939	-158.9140625	48.4164161682129	-712.1421508789064	-171.4866180419922	58.08314895629884	-668.6864013671876	-231.6016845703126	33.56611251831055	-624.0368041992189	nan	nan	nan	nan	nan	nan	
896	4.475000000000001	159.355453491211	1072.633422851563	-818.978210449219	6.692722320556642	1072.684814453125	-948.0970458984377	26.17173385620118	1072.902465820313	-807.2261962890627	-56.56250381469728	1012.713745117188	-887.4502563476565	-340.7753601074219	907.7466430664065	-886.4333496093752	-33.45975494384766	852.2685546875002	-889.3107910156252	3.147308111190797	907.177185058594	-1070.36572265625	-120.4465408325196	887.2263793945315	-1260.545166015625	-135.9494934082032	840.6492919921877	-1257.05126953125	-164.9720306396485	857.3295898437502	-1305.635986328125	-223.3934783935547	823.110534667969	-1335.406127929688	-269.5474243164063	899.8980712890627	-1321.771850585938	-460.6395263671876	789.9061279296877	-1160.622436523438	-445.4066467285157	719.9224853515626	-1186.788940429688	-433.2237854003907	781.0238037109377	-1097.988891601563	-4.572035312652589	893.4703369140627	-703.7508544921876	-140.1282653808594	944.9085693359377	-543.6868286132814	-161.2738800048828	901.310729980469	-530.4395751953126	-190.2684631347657	939.7420043945315	-494.1445922851564	-249.2692260742188	912.075622558594	-461.9716796875001	-288.9509887695313	985.8358154296877	-497.3610229492189	-451.3564758300782	839.5888671875002	-677.6343383789064	-467.0076293945314	788.4516601562502	-623.3788452148439	-420.3278808593751	792.3501586914065	-725.3515014648439	-400.5426330566407	738.5391235351564	-1031.290893554688	-389.9863891601564	701.5556030273439	-809.3209228515627	-497.3374023437501	867.6446533203127	-881.7956542968752	-526.2805175781251	856.5993652343752	-911.6360473632815	-525.9550170898439	845.7431640625002	-853.356384277344	-354.3810119628907	597.8040771484376	-1106.015625	-269.7137756347657	582.3792724609376	-1113.183227539063	-239.9240417480469	618.1696777343751	-1102.305297851563	-241.7207031250001	527.9749145507814	-1104.404663085938	-155.0800323486328	474.1785278320314	-1091.816284179688	-119.7879791259766	455.814666748047	-987.0725097656252	-120.3653793334961	334.8859863281251	-1078.36474609375	-198.6183166503907	321.0355834960938	-1118.060546875	-163.5570983886719	304.4572753906251	-1099.874389648438	-190.6789703369141	228.5875854492188	-1061.5791015625	-316.3994140625001	98.78001403808597	-1092.184814453125	-291.4473266601563	87.45235443115236	-1007.539123535156	-389.7979736328126	42.69801712036134	-1050.473388671875	-155.6121063232422	52.94181060791017	-1071.115966796875	-168.1939392089844	55.35285568237306	-1112.32177734375	-219.4698791503907	33.55170440673829	-1157.725219726563	-361.0334777832032	610.6954345703126	-687.5016479492189	-294.5905456542969	616.2707519531251	-678.3168945312501	-277.4237670898438	643.1806640625001	-690.4638671875001	-242.6260223388672	551.7720947265626	-664.6813354492189	-166.885726928711	461.0272216796876	-675.8401489257814	-127.833854675293	459.6969299316407	-780.7127075195315	-177.0718078613282	269.1683959960938	-690.6056518554689	-277.4482421875001	231.3432769775391	-684.4215087890626	-235.125228881836	210.3282165527344	-685.1459960937501	-231.3092041015626	157.7000274658203	-713.0872192382814	-323.5601196289063	91.23613739013673	-694.8079223632814	-286.1433105468751	94.19859313964845	-778.0825195312502	-391.7850646972657	41.8045883178711	-747.0590209960939	-159.0007934570313	48.54048538208009	-712.2020263671876	-171.5406494140625	58.04639816284181	-668.6853027343751	-231.5729217529297	33.59769439697266	-623.9986572265626	nan	nan	nan	nan	nan	nan	
897	4.48	159.1616668701172	1072.227294921875	-818.9445800781252	6.530685901641847	1072.397705078125	-948.050964355469	25.96528053283692	1072.2548828125	-807.3672485351565	-56.76448440551759	1012.437133789063	-887.4523925781252	-340.9967041015626	907.5813598632815	-886.4785156250002	-33.69652557373048	851.809265136719	-889.2097167968752	2.963616132736206	906.7907714843752	-1070.410278320313	-120.5723876953125	887.0046997070315	-1260.562133789063	-136.8209533691407	840.3222656250002	-1256.567016601563	-165.198486328125	857.019226074219	-1305.682250976563	-223.636215209961	822.9053344726565	-1335.400146484375	-269.7325134277344	899.6988525390627	-1321.779296875	-460.8898315429689	789.8867187500002	-1160.630493164063	-445.7955322265626	719.8330688476564	-1186.817138671875	-433.6929626464845	781.0607910156252	-1098.114868164063	-4.716209888458253	893.0668945312502	-703.7702026367189	-140.2178192138672	944.6130981445315	-543.6614379882814	-161.3686065673828	901.0195312500002	-530.3777465820314	-190.427001953125	939.4282226562502	-494.2324523925782	-250.0955200195313	911.3063964843752	-462.5183715820314	-289.0952148437501	985.5502929687502	-497.3619995117189	-451.621551513672	839.5571899414065	-677.6943359375001	-467.303436279297	788.3985595703127	-623.3626098632814	-420.3891906738282	792.200866699219	-725.1871948242189	-404.8988647460939	722.8293457031251	-1018.668334960938	-411.6238708496095	695.7123413085939	-795.1052246093752	-497.5920715332032	867.5123291015627	-881.8377075195315	-527.0347290039064	856.7824707031252	-911.7393798828127	-531.7081298828126	848.7011718750002	-854.6321411132815	-354.6734313964844	597.7277221679689	-1106.085083007813	-269.9331359863282	582.4484252929689	-1113.215209960938	-240.1597442626954	618.1364135742189	-1102.378662109375	-241.9268951416016	527.9542846679689	-1104.446044921875	-155.3117980957032	474.3274841308595	-1092.002685546875	-119.9818878173828	455.8460388183595	-987.1112060546877	-120.7193069458008	335.1903686523438	-1078.486206054688	-198.7619018554688	321.0468750000001	-1118.13720703125	-163.6952362060547	304.5164184570313	-1099.861450195313	-190.7579956054688	228.6697082519532	-1061.671020507813	-316.3795471191407	98.78191375732425	-1092.18603515625	-291.4918823242188	87.43940734863283	-1007.549987792969	-389.8083801269532	42.69104766845704	-1050.464111328125	-155.5923461914063	52.90746688842775	-1071.116821289063	-168.1929321289063	55.35031127929689	-1112.318237304688	-219.4032440185547	33.57389450073243	-1157.732421875	-361.2297668457032	610.7124633789064	-687.4774780273439	-294.8718566894532	616.2940063476564	-678.3892822265626	-277.7558288574219	643.2805786132814	-690.4444580078126	-242.9526977539063	551.8085327148439	-664.6111450195314	-167.0399627685547	461.0842285156251	-675.8054199218751	-127.8432693481446	459.8241271972657	-780.716003417969	-177.1883239746094	269.1933898925782	-690.6162719726564	-277.5100097656251	231.3330230712891	-684.3978271484376	-235.1931915283204	210.3648986816407	-685.1607055664064	-231.3699340820313	157.7488708496094	-713.0150756835939	-323.5803527832032	91.22595977783205	-694.7756958007814	-286.1326293945313	94.17599487304689	-778.0758056640627	-391.7876586914064	41.81588745117188	-747.0368652343751	-158.964828491211	48.58062744140626	-712.2285156250001	-171.5272064208985	58.0403518676758	-668.6559448242189	-231.5827941894532	33.59912872314454	-624.0166015625001	nan	nan	nan	nan	nan	nan	
898	4.485	159.0019836425782	1071.764526367188	-818.957214355469	6.558071136474611	1072.013916015625	-948.122497558594	25.89014053344727	1071.574096679688	-807.2772216796877	-56.94823455810548	1012.119750976563	-887.4602050781252	-341.2672424316407	907.4634399414065	-886.5217285156252	-33.97396850585938	851.4957275390627	-889.2178344726565	2.695237636566163	906.3682250976565	-1070.397094726563	-120.8758697509766	886.6784667968752	-1260.5498046875	-137.1144409179688	840.060485839844	-1256.570556640625	-165.51123046875	856.7950439453127	-1305.739135742188	-223.8026580810547	822.7592773437502	-1335.416625976563	-269.8609619140626	899.5740356445315	-1321.786376953125	-461.144989013672	789.8831176757815	-1160.711303710938	-446.156951904297	719.7292480468751	-1186.879516601563	-433.9915466308595	780.9925537109377	-1098.170288085938	-4.937313556671143	892.5477294921877	-703.7518920898439	-140.3336486816407	944.243591308594	-543.6925659179689	-161.6237030029297	900.672058105469	-530.3500366210939	-190.6210021972657	939.043151855469	-494.1536254882814	-250.2704772949219	911.0723266601565	-462.467742919922	-289.2036437988282	985.3560791015627	-497.3394470214845	-451.8916625976564	839.4736328125002	-677.7097778320314	-467.6463623046876	788.3389282226565	-623.3200073242189	-420.2135009765626	791.7293090820315	-725.1002807617189	-404.7792053222657	722.9309692382814	-1018.572326660156	-411.6241760253907	695.9763183593751	-794.9692382812502	-497.9980773925782	867.4727783203127	-881.861022949219	-527.3424072265626	856.6724853515627	-911.8239746093752	-532.0096435546876	848.6304931640627	-854.7360839843752	-354.8657836914063	597.6746215820314	-1106.132568359375	-270.1750793457032	582.4340820312501	-1113.273071289063	-240.4795074462891	618.0682983398439	-1102.425048828125	-242.0816192626954	527.9582519531251	-1104.55126953125	-155.5415344238282	474.3873291015626	-1092.12451171875	-120.1023635864258	455.9078369140626	-987.1358642578127	-120.5453338623047	335.0526733398438	-1078.508422851563	-198.8651275634766	321.1131286621094	-1118.162353515625	-163.8433227539063	304.5351562500001	-1099.852905273438	-190.8182373046875	228.6808776855469	-1061.663330078125	-316.3425598144532	98.78781890869143	-1092.187622070313	-291.4717712402344	87.47631072998048	-1007.565307617188	-389.8255920410157	42.69356536865235	-1050.453369140625	-155.5592041015625	52.932186126709	-1071.075561523438	-168.2420349121094	55.32219696044923	-1112.354125976563	-220.2114257812501	34.11542510986329	-1157.727416992188	-361.4733886718751	610.6779785156251	-687.4098510742189	-295.0501098632813	616.2159423828126	-678.4365844726564	-278.0219116210938	643.2636718750001	-690.3774414062501	-243.2836456298829	551.8903808593751	-664.6262817382814	-167.1790466308594	461.0697326660157	-675.7285156250001	-128.0270080566407	459.872039794922	-780.696472167969	-177.2849426269532	269.2508239746094	-690.5771484375001	-277.5717773437501	231.4134674072266	-684.3505859375001	-235.2600860595704	210.3578643798829	-685.0857543945314	-231.3909606933594	157.7450103759766	-713.0157470703126	-323.5822448730469	91.21174621582033	-694.7710571289064	-286.1749267578126	94.17671966552736	-778.0394287109377	-391.8523254394532	41.81684875488282	-747.0174560546876	-158.9853210449219	48.58585357666017	-712.1971435546876	-171.5467681884766	58.09742355346681	-668.6582641601564	-231.620101928711	33.59140014648438	-624.0390014648439	nan	nan	nan	nan	nan	nan	
